<?xml version="1.0" encoding="UTF-8"?>
<svg id="Layer_2" data-name="Layer 2" xmlns="http://www.w3.org/2000/svg" viewBox="0 0 152.58 83.42">
  <defs>
    <style>
      .cls-1 {
        fill: #231f20;
      }
    </style>
  </defs>
  <g id="Vrstva_1" data-name="Vrstva 1">
    <g>
      <g>
        <path class="cls-1" d="M31.87,20.66v7.66h13.48v-6.52C45.35,8.84,36.07,0,22.68,0,9.28,0,0,8.84,0,21.8v13.17H13.48v-14.3c0-5.95,3.85-9.37,9.19-9.37s9.19,3.41,9.19,9.37Z"/>
        <path class="cls-1" d="M31.87,48.55v14.2c0,5.95-3.85,9.37-9.19,9.37s-9.19-3.41-9.19-9.37v-14.2H0v13.07c0,12.96,9.28,21.8,22.68,21.8s22.68-8.84,22.68-21.8v-13.07h-13.48Z"/>
      </g>
      <g>
        <path class="cls-1" d="M69.82,17.51c2.39,0,4.24,1.51,4.49,3.58h-2.73c-.29-.87-.88-1.41-1.76-1.41-1.15,0-1.98,.98-1.98,2.42s.83,2.41,1.98,2.41c.88,0,1.48-.53,1.76-1.39h2.73c-.25,2.05-2.1,3.58-4.49,3.58-2.76,0-4.73-1.92-4.73-4.6s1.97-4.6,4.73-4.6Z"/>
        <path class="cls-1" d="M80.16,17.51c2.97,0,5.09,2.24,4.66,5.36h-6.66c.17,1.07,1,1.78,2,1.78,.9,0,1.44-.46,1.73-1.03h2.73c-.58,1.88-2.26,3.09-4.46,3.09-2.75,0-4.71-1.93-4.71-4.6s1.98-4.6,4.71-4.6Zm1.97,3.63c-.22-.85-.95-1.58-1.97-1.58s-1.71,.71-1.97,1.58h3.93Z"/>
        <path class="cls-1" d="M86.41,17.68h2.61v1.07c.61-.78,1.54-1.24,2.68-1.24,2.05,0,3.49,1.49,3.49,3.61v5.41h-2.61v-5.07c0-1.02-.75-1.76-1.78-1.76s-1.78,.75-1.78,1.8v5.04h-2.61v-8.85Z"/>
        <path class="cls-1" d="M97.47,15.34h2.61v2.34h2.54v2.12h-2.54v3.37c0,1.05,.7,1.64,2.54,1.15v2.17c-3.7,.76-5.15-.83-5.15-3.26v-3.44h-1.46v-2.12h1.46v-2.34Z"/>
        <path class="cls-1" d="M104.27,17.68h2.61v1.07c.66-.92,1.73-1.41,2.92-1.17v2.46c-1.73-.31-2.92,.34-2.92,1.66v4.83h-2.61v-8.85Z"/>
        <path class="cls-1" d="M113.53,17.68v5.02c0,1.15,.75,1.81,1.78,1.81s1.78-.66,1.78-1.81v-5.02h2.61v4.8c0,2.51-1.8,4.22-4.39,4.22s-4.39-1.71-4.39-4.22v-4.8h2.61Z"/>
        <path class="cls-1" d="M121.48,17.68h2.61v1c.54-.73,1.39-1.17,2.41-1.17,1.09,0,1.97,.49,2.51,1.31,.58-.81,1.54-1.31,2.7-1.31,1.98,0,3.37,1.36,3.37,3.29v5.73h-2.61v-5.39c0-.85-.59-1.44-1.46-1.44-.81,0-1.42,.59-1.42,1.46v5.38h-2.61v-5.39c0-.85-.59-1.44-1.44-1.44s-1.44,.59-1.44,1.46v5.38h-2.61v-8.85Z"/>
        <path class="cls-1" d="M54.22,33.29v5.02c0,1.15,.75,1.81,1.78,1.81s1.78-.66,1.78-1.81v-5.02h2.61v4.8c0,2.51-1.8,4.22-4.39,4.22s-4.39-1.71-4.39-4.22v-4.8h2.61Z"/>
        <path class="cls-1" d="M62.17,33.29h2.61v1c.54-.73,1.39-1.17,2.41-1.17,1.09,0,1.97,.49,2.51,1.31,.58-.81,1.54-1.31,2.7-1.31,1.98,0,3.37,1.36,3.37,3.29v5.73h-2.61v-5.39c0-.85-.59-1.44-1.46-1.44-.81,0-1.42,.59-1.42,1.46v5.38h-2.61v-5.39c0-.85-.59-1.44-1.44-1.44s-1.44,.59-1.44,1.46v5.38h-2.61v-8.85Z"/>
        <path class="cls-1" d="M81.92,33.12c2.97,0,5.09,2.24,4.66,5.36h-6.66c.17,1.07,1,1.78,2,1.78,.9,0,1.44-.46,1.73-1.03h2.73c-.58,1.88-2.26,3.09-4.46,3.09-2.75,0-4.71-1.93-4.71-4.6s1.98-4.6,4.71-4.6Zm-3.24-3.8h2.17l1.09,1.39,1.07-1.39h2.15l-1.85,2.93h-2.78l-1.85-2.93Zm5.21,7.43c-.22-.85-.95-1.58-1.97-1.58s-1.71,.71-1.97,1.58h3.93Z"/>
        <path class="cls-1" d="M88.18,29.59h2.61v12.55h-2.61v-12.55Z"/>
        <path class="cls-1" d="M97.03,33.12c2.97,0,5.09,2.24,4.66,5.36h-6.66c.17,1.07,1,1.78,2,1.78,.9,0,1.44-.46,1.73-1.03h2.73c-.58,1.88-2.26,3.09-4.46,3.09-2.75,0-4.71-1.93-4.71-4.6s1.98-4.6,4.71-4.6Zm1.97,3.63c-.22-.85-.95-1.58-1.97-1.58s-1.71,.71-1.97,1.58h3.93Z"/>
        <path class="cls-1" d="M107.63,33.12c2.39,0,4.24,1.51,4.49,3.58h-2.73c-.29-.86-.88-1.41-1.76-1.41-1.15,0-1.98,.98-1.98,2.42s.83,2.41,1.98,2.41c.88,0,1.48-.53,1.76-1.39h2.73c-.25,2.05-2.1,3.58-4.49,3.58-2.76,0-4.73-1.92-4.73-4.6s1.97-4.6,4.73-4.6Z"/>
        <path class="cls-1" d="M113.65,29.59h2.61v7.29l3.07-3.59h3.22l-3.54,3.85,3.85,5h-3.27l-2.34-3.04-.98,1.03v2h-2.61v-12.55Z"/>
        <path class="cls-1" d="M126.53,42.4l-3.66-9.11h2.93l2.15,6.04,2.15-6.04h2.78l-4.93,12.24h-2.76l1.34-3.14Zm1.44-13.07h2.97l-2.22,2.93h-2.22l1.48-2.93Z"/>
        <path class="cls-1" d="M137.77,33.12c2.39,0,4.24,1.51,4.49,3.58h-2.73c-.29-.86-.88-1.41-1.76-1.41-1.15,0-1.98,.98-1.98,2.42s.83,2.41,1.98,2.41c.88,0,1.48-.53,1.76-1.39h2.73c-.25,2.05-2.1,3.58-4.49,3.58-2.76,0-4.73-1.92-4.73-4.6s1.97-4.6,4.73-4.6Z"/>
        <path class="cls-1" d="M143.79,29.59h2.61v4.77c.61-.78,1.54-1.24,2.68-1.24,2.05,0,3.49,1.49,3.49,3.61v5.41h-2.61v-5.07c0-1.02-.75-1.76-1.78-1.76s-1.78,.75-1.78,1.8v5.04h-2.61v-12.55Z"/>
        <path class="cls-1" d="M68.93,52.47c.46,0,1.09,.05,1.81,.15v-.47c0-.9-.59-1.39-1.48-1.39s-1.42,.41-1.46,1.14h-2.61c.09-1.76,1.39-3.17,4.07-3.17,2.53,0,4.09,1.29,4.09,3.63v5.39h-2.61v-1.03c-.76,.85-1.8,1.2-2.9,1.2-1.68,0-2.93-.92-2.93-2.59,0-1.76,1.32-2.85,4.02-2.85Zm-.3,3.54c1.22,0,2-.86,2.12-1.63-.56-.1-1.1-.15-1.56-.15-1.17,0-1.64,.36-1.64,.95,0,.54,.39,.83,1.09,.83Z"/>
        <path class="cls-1" d="M75.14,45.2h2.61v7.29l3.07-3.59h3.22l-3.54,3.85,3.85,5h-3.27l-2.34-3.04-.98,1.03v2h-2.61v-12.55Z"/>
        <path class="cls-1" d="M85.89,46.56h2.61v2.34h2.54v2.12h-2.54v3.37c0,1.05,.7,1.64,2.54,1.15v2.17c-3.7,.76-5.15-.83-5.15-3.26v-3.44h-1.46v-2.12h1.46v-2.34Z"/>
        <path class="cls-1" d="M93.99,44.91c.83,0,1.49,.64,1.49,1.48s-.66,1.49-1.49,1.49-1.49-.64-1.49-1.49,.66-1.48,1.49-1.48Zm-1.31,3.99h2.61v8.85h-2.61v-8.85Z"/>
        <path class="cls-1" d="M96.18,48.9h2.93l2.15,6.04,2.15-6.04h2.78l-3.56,8.85h-2.9l-3.56-8.85Z"/>
        <path class="cls-1" d="M108.39,44.91c.83,0,1.49,.64,1.49,1.48s-.66,1.49-1.49,1.49-1.49-.64-1.49-1.49,.66-1.48,1.49-1.48Zm-1.31,3.99h2.61v8.85h-2.61v-8.85Z"/>
        <path class="cls-1" d="M112.47,46.56h2.61v2.34h2.54v2.12h-2.54v3.37c0,1.05,.69,1.64,2.54,1.15v2.17c-3.7,.76-5.15-.83-5.15-3.26v-3.44h-1.46v-2.12h1.46v-2.34Z"/>
      </g>
    </g>
  </g>
</svg>