<svg xmlns="http://www.w3.org/2000/svg" xmlns:xlink="http://www.w3.org/1999/xlink" viewBox="0 0 493.18153 73.84642">
  <defs>
    <clipPath id="a" transform="translate(26.26415 0.00147)">
      <rect y="0.00031" width="435.8382" height="73.84414" style="fill: none"/>
    </clipPath>
  </defs>
  <title>Koridor</title>
  <g style="clip-path: url(#a)">
    <path d="M29.06378,73.845l-55.32793-1.653V60.63067l46.33847-1.92554a359.4611,359.4611,0,0,1,21.9953-42.56138Q47.10188,7.7719,52.3425-.00147L63.138,7.67172A244.2961,244.2961,0,0,0,43.32722,41.15726a288.03862,288.03862,0,0,1,29.13942-22.723L83.16071,27.902q-19.28859,11.66073-29.77,18.8357a109.10213,109.10213,0,0,0,5.346,11.66112,190.87777,190.87777,0,0,0,23.41682-9.27254,52.23172,52.23172,0,0,1,2.1597-6.07556A43.56261,43.56261,0,0,1,118.17,17.73788l16.66713,13.5536a69.42106,69.42106,0,0,1-2.351,9.88181,103.37648,103.37648,0,0,0,11.66566-1.21285q3.039-3.587,5.24187-6.17792a60.08977,60.08977,0,0,1-5.87167-7.27515,113.06994,113.06994,0,0,1,12.57942-13.453l9.74906,7.17536a57.62845,57.62845,0,0,1-1.9913,6.67652,174.80926,174.80926,0,0,0,19.49709-2.78994q5.97235-1.39616,10.37614-2.492l2.93645,11.85988q-4.298,1.19418-9.01551,2.09113a123.73349,123.73349,0,0,0-12.05448,23.02123,160.65133,160.65133,0,0,0,22.85559-9.00894q4.80417-8.84089,11.98485-19.59085a117.08421,117.08421,0,0,1,7.757-10.466l10.378,7.27583a158.91208,158.91208,0,0,0-14.88664,24.01706q-2.09568,4.18668-3.56389,7.77293a151.23,151.23,0,0,0,23.43341-9.45439q.31188-1.1061.67669-2.20484a43.06226,43.06226,0,0,1,7.44328-13.65261,40.769,40.769,0,0,1,29.03462-14.94829l5.76533,8.36961A198.86063,198.86063,0,0,1,293.66915-.00147l10.16638,8.37229q-10.37706,12.5571-21.48733,35.6773-3.35411,6.97311-5.97506,13.65066a120.06034,120.06034,0,0,0,21.94879-8.86655,51.94726,51.94726,0,0,1,2.07373-5.78156,43.56625,43.56625,0,0,1,33.857-25.31279l16.66671,13.5536a69.56459,69.56459,0,0,1-2.351,9.88181A103.36767,103.36767,0,0,0,360.234,39.96044q3.03954-3.587,5.24189-6.17719a60.14917,60.14917,0,0,1-5.87111-7.27588,112.96069,112.96069,0,0,1,12.57939-13.453l9.74875,7.17536a57.52665,57.52665,0,0,1-1.99171,6.67747,175.05874,175.05874,0,0,0,19.49745-2.79089q5.97239-1.39482,10.37614-2.49111l2.9365,11.85894q-4.29806,1.19568-9.01556,2.092a231.54214,231.54214,0,0,0-12.05412,23.02034l28.71724-9.88715,46.51848,2.28694V62.00749l-49.9018,1.10237L384.76182,73.845l-11.1112-10.564s9.4004-18.43667,14.57111-25.61114q-7.33752.59589-12.99707.79612c-1.11984,1.995-6.81406,10.82042-6.81406,10.82042l-10.91241,4.982-16.913,1.65825-2.76868,3.96478a42.29313,42.29313,0,0,1-4.83515,4.55084A46.93094,46.93094,0,0,1,311.29712,73.845L296.41231,61.986V61.7509q-6.7056,3.89286-17.31429,8.80433-4.50591,1.993-7.23352,2.89069L263.79372,64.875A54.24658,54.24658,0,0,1,244.71578,73.845L231.71866,62.38326c0-.21724,0-.43282.00367-.64839a196.3826,196.3826,0,0,1-18.2426,8.62081q-4.8233,1.99578-9.435,3.48927l-11.25159-9.86049q-6.44567,3.14728-14.46916,6.37122Q173.293,72.35146,168.679,73.845L157.56819,63.281a152.854,152.854,0,0,1,14.57074-25.61114q-7.33645.59723-12.99709.798c-1.11951,1.99316-6.8137,10.81858-6.8137,10.81858L141.416,54.27018l-16.913,1.65647-2.76885,3.96478a42.30309,42.30309,0,0,1-4.83479,4.55084A46.9372,46.9372,0,0,1,95.21464,73.845L80.35718,62.00749A222.63969,222.63969,0,0,1,57.47839,73.845l-13.103-8.77037a77.01538,77.01538,0,0,1-4.29708-16.94051C36.7422,55.34411,29.06378,73.845,29.06378,73.845Zm65.31188-13.5546a32.27434,32.27434,0,0,0,19.91694-14.0497,37.2159,37.2159,0,0,0,4.82238-9.36783,28.14041,28.14041,0,0,0,1.57186-7.17542,28.356,28.356,0,0,0-16.1426,8.56994,31.98828,31.98828,0,0,0-10.16858,22.023Zm216.08243,0A32.27285,32.27285,0,0,0,330.375,46.24065a37.234,37.234,0,0,0,4.8224-9.36783,28.12654,28.12654,0,0,0,1.5722-7.17542,28.3588,28.3588,0,0,0-16.1433,8.56994,31.98619,31.98619,0,0,0-10.16824,22.023Zm-64.06435-.79617Q257.608,56.60346,266.83414,45.343a52.02211,52.02211,0,0,0,4.08735-14.152,25.56517,25.56517,0,0,0-17.7155,9.06861,28.61444,28.61444,0,0,0-6.81225,19.23462Zm-20.44038-44.746a7.83473,7.83473,0,0,1-2.41117-5.77982,7.60779,7.60779,0,0,1,2.46221-5.73085,8.92926,8.92926,0,0,1,12.056,0,7.89744,7.89744,0,0,1,.29366,11.16513c-.09484.10153-.19153.19949-.29366.29478a8.42026,8.42026,0,0,1-6.02794,2.3431,8.7014,8.7014,0,0,1-6.07906-2.29234Z" transform="translate(26.26415 0.00147)" style="fill: #029ca3"/>
  </g>
</svg>
