<?xml version="1.0" encoding="UTF-8"?><svg id="LOGO_ORIGINAL_WIDE" xmlns="http://www.w3.org/2000/svg" xmlns:xlink="http://www.w3.org/1999/xlink" viewBox="0 0 1700 400"><defs><style>.cls-1{fill:#8ecab1;}.cls-2{fill:url(#FORT_gradient);}.cls-3{fill:url(#FORT_gradient-2);}</style><linearGradient id="FORT_gradient" x1="221.66" y1="81.15" x2="449.35" y2="81.15" gradientUnits="userSpaceOnUse"><stop offset="0" stop-color="#265565"/><stop offset=".04" stop-color="#31626d"/><stop offset=".15" stop-color="#4e8282"/><stop offset=".26" stop-color="#659c93"/><stop offset=".39" stop-color="#77b0a0"/><stop offset=".53" stop-color="#84bfa9"/><stop offset=".71" stop-color="#8bc7af"/><stop offset="1" stop-color="#8ecab1"/></linearGradient><linearGradient id="FORT_gradient-2" x1="336.95" y1="318.79" x2="109.26" y2="318.79" xlink:href="#FORT_gradient"/></defs><g id="FORT"><path id="T" class="cls-1" d="M1617.03,105.14v51.52h-79.97v138.15h-63.05V156.66h-80.99v-51.52h224.01Zm-224.01,51.26v-51.26h224.01l-224.01,51.26Z"/><path id="R" class="cls-1" d="M1271.67,294.55l-52.54-61.26h-39.21v61.26h-60.49V104.89h143.27c15.89,0,29.94,2.65,42.16,7.95,12.21,5.3,21.7,12.69,28.45,22.17,6.75,9.48,10.12,20.46,10.12,32.93v1.02c0,16.24-4.74,29.65-14.22,40.24-9.48,10.6-22.6,17.68-39.34,21.27l55.1,64.08h-73.3Zm8.07-139.68c-2.82-3.08-6.45-4.95-10.89-5.64-4.45-.68-10.94-1.03-19.48-1.03h-9.23c-12.65,.34-32.72,.51-60.23,.51v40.75h69.46c8.54,0,15.03-.34,19.48-1.03,4.44-.68,8.07-2.44,10.89-5.25,2.82-2.82,4.23-7.39,4.23-13.71,0-6.66-1.41-11.53-4.23-14.61Z"/><path id="O" class="cls-1" d="M1011.03,113.98c18.88,8.63,33.66,20.5,44.34,35.62,10.68,15.12,16.02,32.17,16.02,51.13s-5.34,35.71-16.02,50.75c-10.68,15.04-25.42,26.87-44.21,35.5-18.8,8.63-39.9,12.94-63.31,12.94s-43.4-4.32-62.54-12.94c-19.14-8.63-34.3-20.5-45.49-35.62-11.19-15.12-16.79-31.99-16.79-50.62s5.59-35.79,16.79-51c11.19-15.21,26.31-27.12,45.36-35.75,19.05-8.63,39.86-12.94,62.41-12.94s44.55,4.32,63.43,12.94Zm-35.63,131.87c8.8-4.1,15.93-10,21.4-17.68,5.47-7.69,8.2-16.83,8.2-27.42s-2.78-19.77-8.33-27.55c-5.55-7.77-12.78-13.67-21.66-17.68-8.89-4.01-18.11-6.02-27.68-6.02s-18.97,2.05-27.68,6.15-15.76,10.04-21.14,17.81c-5.38,7.78-8.07,16.88-8.07,27.3s2.73,19.74,8.2,27.42c5.47,7.69,12.6,13.58,21.4,17.68,8.8,4.1,18.07,6.15,27.81,6.15s18.75-2.05,27.55-6.15Z"/><path id="F" class="cls-1" d="M774.98,105.14v45.88h-139.94v27.42h118.41v44.6h-118.41v71.76h-63.31V105.14h203.25Z"/></g><g id="SYMBOL"><polygon id="RAW" class="cls-1" points="353.4 218.34 418.75 105.14 252.25 105.15 363.23 294.8 336.95 342.85 109.26 342.85 82.97 294.8 177.48 133.65 205.21 181.67 139.93 294.72 306.35 294.84 195.38 105.14 221.66 57.15 449.35 57.15 475.64 105.14 381.12 266.35 353.4 218.34"/><g id="SHADOW"><polygon class="cls-2" points="221.66 57.15 252.25 105.15 418.75 105.14 449.35 57.15 221.66 57.15"/><polygon class="cls-3" points="109.26 342.85 139.93 294.72 306.35 294.84 336.95 342.85 109.26 342.85"/></g></g></svg>