
		<svg xmlns="http://www.w3.org/2000/svg" xmlns:xlink="http://www.w3.org/1999/xlink" version="1.1" width="3228.1368821292776" height="1095.0570342205324">
			
			<g transform="scale(11.406844106463879) translate(10, 10)">
				<defs id="SvgjsDefs7784"><linearGradient id="SvgjsLinearGradient7789"><stop id="SvgjsStop7790" stop-color="#8f5e25" offset="0"></stop><stop id="SvgjsStop7791" stop-color="#fbf4a1" offset="0.5"></stop><stop id="SvgjsStop7792" stop-color="#8f5e25" offset="1"></stop></linearGradient><linearGradient id="SvgjsLinearGradient7793"><stop id="SvgjsStop7794" stop-color="#8f5e25" offset="0"></stop><stop id="SvgjsStop7795" stop-color="#fbf4a1" offset="0.5"></stop><stop id="SvgjsStop7796" stop-color="#8f5e25" offset="1"></stop></linearGradient><linearGradient id="SvgjsLinearGradient7797"><stop id="SvgjsStop7798" stop-color="#8f5e25" offset="0"></stop><stop id="SvgjsStop7799" stop-color="#fbf4a1" offset="0.5"></stop><stop id="SvgjsStop7800" stop-color="#8f5e25" offset="1"></stop></linearGradient></defs><g id="SvgjsG7785" featureKey="root" fill="#000000"></g><g id="SvgjsG7786" featureKey="text4" fill="url(#SvgjsLinearGradient7797)" transform="matrix(4.966216472224492,0,0,4.966216472224492,0.9547227791050457,-23.83109183342866)"><path d="M11.1 14.1 l3.02 4.62 q0.22 0.36 0.02 0.72 q-0.08 0.16 -0.25 0.26 t-0.35 0.1 l-1.82 0 q-0.18 0 -0.34 -0.09 t-0.24 -0.23 l-3.04 -4.82 l-3.56 0 l0 4.44 q0 0.28 -0.21 0.49 t-0.49 0.21 l-1.52 0 q-0.28 0 -0.49 -0.21 t-0.21 -0.49 l0 -6.58 q0 -0.28 0.21 -0.49 t0.49 -0.21 l6.16 0 q1.76 0 2.34 -1 q0.2 -0.32 0.2 -0.92 q0 -0.94 -0.62 -1.48 q-0.64 -0.58 -1.84 -0.58 l-6.24 0 q-0.28 0 -0.49 -0.21 t-0.21 -0.49 l0 -1.44 q0 -0.28 0.21 -0.49 t0.49 -0.21 l6.42 0 q2.34 0 3.74 1.32 q1.46 1.32 1.46 3.58 q0 1.46 -0.64 2.49 t-1.86 1.57 z"></path></g><g id="SvgjsG7787" featureKey="text1" fill="url(#SvgjsLinearGradient7789)" transform="matrix(1.7545554629773787,0,0,1.7545554629773787,90.15761784085787,2.2272260316620702)"><path d="M11.1 14.1 l3.02 4.62 q0.22 0.36 0.02 0.72 q-0.08 0.16 -0.25 0.26 t-0.35 0.1 l-1.82 0 q-0.18 0 -0.34 -0.09 t-0.24 -0.23 l-3.04 -4.82 l-3.56 0 l0 4.44 q0 0.28 -0.21 0.49 t-0.49 0.21 l-1.52 0 q-0.28 0 -0.49 -0.21 t-0.21 -0.49 l0 -6.58 q0 -0.28 0.21 -0.49 t0.49 -0.21 l6.16 0 q1.76 0 2.34 -1 q0.2 -0.32 0.2 -0.92 q0 -0.94 -0.62 -1.48 q-0.64 -0.58 -1.84 -0.58 l-6.24 0 q-0.28 0 -0.49 -0.21 t-0.21 -0.49 l0 -1.44 q0 -0.28 0.21 -0.49 t0.49 -0.21 l6.42 0 q2.34 0 3.74 1.32 q1.46 1.32 1.46 3.58 q0 1.46 -0.64 2.49 t-1.86 1.57 z M23.14 5 q3.28 0 5.38 2.2 q2.06 2.16 2.06 5.3 t-2.06 5.3 q-2.1 2.2 -5.38 2.2 t-5.38 -2.2 q-2.06 -2.16 -2.06 -5.3 t2.06 -5.3 q2.1 -2.2 5.38 -2.2 z M23.14 17.14 q2.06 0 3.32 -1.32 q1.22 -1.28 1.22 -3.31 t-1.24 -3.34 t-3.3 -1.31 t-3.3 1.31 t-1.24 3.34 t1.22 3.31 q1.26 1.32 3.32 1.32 z M43.84 7.140000000000001 q0 0.28 -0.16 0.44 l-7.72 9.3 l7.2 0 q0.28 0 0.48 0.21 t0.2 0.49 l0 1.4 q0 0.28 -0.2 0.49 t-0.48 0.21 l-10.52 0 q-0.28 0 -0.49 -0.21 t-0.21 -0.49 l0 -1.42 q0 -0.24 0.16 -0.44 l7.72 -9.32 l-7.06 0 q-0.28 0 -0.49 -0.21 t-0.21 -0.49 l0 -1.4 q0 -0.28 0.21 -0.49 t0.49 -0.21 l10.4 0 q0.28 0 0.48 0.21 t0.2 0.49 l0 1.44 z M48.28 5 q0.28 0 0.49 0.21 t0.21 0.49 l0 13.28 q0 0.28 -0.21 0.49 t-0.49 0.21 l-1.5 0 q-0.28 0 -0.49 -0.21 t-0.21 -0.49 l0 -13.28 q0 -0.28 0.21 -0.49 t0.49 -0.21 l1.5 0 z M64.38 5 q0.28 0 0.49 0.21 t0.21 0.49 l0 13.28 q0 0.28 -0.21 0.49 t-0.49 0.21 l-1.76 0 q-0.34 0 -0.56 -0.28 l-6.94 -9.5 l0 9.08 q0 0.28 -0.21 0.49 t-0.49 0.21 l-1.5 0 q-0.28 0 -0.49 -0.21 t-0.21 -0.49 l0 -13.28 q0 -0.28 0.21 -0.49 t0.49 -0.21 l1.74 0 q0.16 0 0.32 0.07 t0.24 0.21 l6.96 9.46 l0 -9.04 q0 -0.28 0.2 -0.49 t0.48 -0.21 l1.52 0 z M78.78 5 q0.3 0 0.5 0.21 t0.2 0.49 l0 1.44 q0 0.28 -0.2 0.49 t-0.5 0.21 l-7.56 0 l0 3.06 l6.68 0 q0.3 0 0.5 0.21 t0.2 0.49 l0 1.46 q0 0.28 -0.2 0.49 t-0.5 0.21 l-6.68 0 l0 3.08 l7.56 0 q0.3 0 0.5 0.21 t0.2 0.49 l0 1.44 q0 0.28 -0.2 0.49 t-0.5 0.21 l-9.76 0 q-0.28 0 -0.49 -0.21 t-0.21 -0.49 l0 -13.28 q0 -0.28 0.21 -0.49 t0.49 -0.21 l9.76 0 z M92.04 5 q0.28 0 0.48 0.21 t0.2 0.49 l0 1.44 q0 0.28 -0.2 0.49 t-0.48 0.21 l-3.94 0 l0 11.14 q0 0.28 -0.21 0.49 t-0.49 0.21 l-1.5 0 q-0.3 0 -0.5 -0.21 t-0.2 -0.49 l0 -11.14 l-3.94 0 q-0.28 0 -0.49 -0.21 t-0.21 -0.49 l0 -1.44 q0 -0.28 0.21 -0.49 t0.49 -0.21 l10.78 0 z"></path></g><g id="SvgjsG7788" featureKey="text3" fill="url(#SvgjsLinearGradient7793)" transform="matrix(0.9076347956760193,0,0,0.9076347956760193,87.09236498792698,47.71596482042654)"><path d="M13.8 15.540000000000003 q0 1.46 -0.88 2.6 q-0.86 1.08 -2.37 1.68 t-3.41 0.6 q-1.74 0 -3.38 -0.81 t-2.76 -2.25 l1.56 -1.46 q1.94 2.34 4.58 2.34 q1.16 0 2.12 -0.28 q1.06 -0.32 1.64 -0.9 q0.66 -0.64 0.66 -1.52 q0 -1.06 -0.66 -1.6 q-0.56 -0.46 -1.66 -0.6 q-0.64 -0.08 -2.1 -0.08 q-2.68 0 -4.09 -0.98 t-1.41 -2.88 q0 -1.2 0.71 -2.28 t1.95 -1.72 q1.28 -0.68 2.84 -0.68 q1.76 0 3.18 0.54 q1.52 0.58 2.82 1.82 l-1.36 1.6 q-1.22 -0.98 -2.22 -1.37 t-2.42 -0.39 q-0.82 0 -1.53 0.34 t-1.13 0.91 t-0.42 1.21 q0 1.72 3.18 1.72 q2.54 0 4.02 0.52 q1.4 0.5 2 1.52 q0.54 0.9 0.54 2.4 z M26.28 14.820000000000002 q0 -1.1 -0.6 -1.9 q-0.52 -0.7 -1.46 -1.08 q-0.86 -0.34 -1.9 -0.34 t-1.92 0.36 q-0.94 0.38 -1.46 1.12 q-0.58 0.8 -0.58 1.92 t0.6 1.92 q0.52 0.72 1.46 1.12 q0.88 0.36 1.9 0.36 t1.92 -0.4 q0.92 -0.42 1.46 -1.18 q0.58 -0.82 0.58 -1.9 z M28.44 14.8 q0 1.7 -0.9 3.02 q-0.82 1.22 -2.26 1.92 q-1.38 0.66 -2.98 0.66 t-2.98 -0.66 q-1.42 -0.68 -2.24 -1.88 q-0.88 -1.32 -0.88 -3 t0.9 -2.98 q0.82 -1.2 2.26 -1.86 q1.38 -0.64 2.98 -0.64 t2.96 0.6 q1.42 0.64 2.24 1.82 q0.9 1.28 0.9 3 z M34.28 16.360000000000003 l0 3.72 l-2.04 0 l0 -10.36 l7.76 0 l0 2.06 l-5.72 0 l0 2.52 q0.62 -0.36 1.5 -0.5 q0.68 -0.1 1.74 -0.1 l1.12 0 l0 2.06 l-1.12 0 q-1.38 0 -2 0.12 q-0.54 0.1 -1.24 0.48 z M51.92 11.780000000000001 l-3.9 0 l0 8.3 l-2.06 0 l0 -8.3 l-3.76 0 l0 -2.06 l9.72 0 l0 2.06 z M59.88000000000001 12.420000000000002 l-0.84 -2.7 l2.34 0 l2.36 7.6 l2.78 -7.6 l2.2 0 l-3.64 10.36 l-2.78 0 l-1.3 -4.1 l-1.06 4.1 l-2.74 0 l-3.58 -10.36 l2.22 0 l2.68 7.6 z M77.98 16.64 l0.28 0 l-2.02 -3.84 l-2.46 4.74 q0.68 -0.36 1.54 -0.58 q1.24 -0.32 2.66 -0.32 z M75.18 10.780000000000001 l-0.68 -1.3 l2.22 0 l5.6 10.6 l-2.26 0 l-0.82 -1.56 l-1.24 0 q-1.18 0 -2.5 0.28 q-1.12 0.22 -2.04 0.6 q-0.84 0.32 -1.02 0.56 l-0.06 0.12 l-2.16 0 z M93.08000000000001 15.860000000000003 l0.64 1.08 q0.34 0.56 0.86 0.78 q0.36 0.14 0.88 0.14 l0.72 0 l0 2.22 l-0.9 0 q-0.66 0 -1.04 -0.08 q-0.56 -0.12 -1.02 -0.44 q-0.5 -0.38 -0.96 -1.12 l-1.6 -2.6 l-0.14 0 q-1.14 0 -1.74 0.14 q-0.48 0.1 -1.16 0.46 l0 3.64 l-2.1 0 l0 -10.36 l6.68 0 q0.94 0 1.68 0.4 t1.16 1.12 t0.42 1.6 q0 1.16 -0.61 1.91 t-1.77 1.11 z M90.52000000000001 13.780000000000001 l1.68 0 q0.5 0 0.83 -0.26 t0.33 -0.74 q0 -0.62 -0.48 -0.84 q-0.34 -0.16 -1.04 -0.16 l-4.22 0 l0 2.6 q1.1 -0.6 2.9 -0.6 z M102.22 16.360000000000003 l0 1.64 l6.5 0 l0 2.08 l-8.54 0 l0 -10.36 l8.16 0 l0 2.06 l-6.12 0 l0 2.52 q0.62 -0.36 1.5 -0.5 q0.68 -0.1 1.74 -0.1 l1.52 0 l0 2.06 l-1.52 0 q-1.38 0 -2 0.12 q-0.54 0.1 -1.24 0.48 z  M122.86 11.540000000000003 l2.64 0 q2.2 0 2.2 -2.12 q0 -1.1 -0.55 -1.59 t-1.65 -0.49 l-5.48 0 l0 4.8 q0.62 -0.36 1.4 -0.5 q0.58 -0.1 1.44 -0.1 z M120.02 20.080000000000002 l-2.18 0 l0 -14.92 l7.66 0 q1.32 0 2.3 0.51 t1.52 1.47 t0.54 2.27 t-0.54 2.29 t-1.53 1.51 t-2.29 0.53 l-2.64 0 q-1.72 0 -2.84 0.6 l0 5.74 z M142.34 14.820000000000002 q0 -1.1 -0.6 -1.9 q-0.52 -0.7 -1.46 -1.08 q-0.86 -0.34 -1.9 -0.34 t-1.92 0.36 q-0.94 0.38 -1.46 1.12 q-0.58 0.8 -0.58 1.92 t0.6 1.92 q0.52 0.72 1.46 1.12 q0.88 0.36 1.9 0.36 t1.92 -0.4 q0.92 -0.42 1.46 -1.18 q0.58 -0.82 0.58 -1.9 z M144.5 14.8 q0 1.7 -0.9 3.02 q-0.82 1.22 -2.26 1.92 q-1.38 0.66 -2.98 0.66 t-2.98 -0.66 q-1.42 -0.68 -2.24 -1.88 q-0.88 -1.32 -0.88 -3 t0.9 -2.98 q0.82 -1.2 2.26 -1.86 q1.38 -0.64 2.98 -0.64 t2.96 0.6 q1.42 0.64 2.24 1.82 q0.9 1.28 0.9 3 z M153.06 12.420000000000002 l-0.84 -2.7 l2.34 0 l2.36 7.6 l2.78 -7.6 l2.2 0 l-3.64 10.36 l-2.78 0 l-1.3 -4.1 l-1.06 4.1 l-2.74 0 l-3.58 -10.36 l2.22 0 l2.68 7.6 z M167.24 16.360000000000003 l0 1.64 l6.5 0 l0 2.08 l-8.54 0 l0 -10.36 l8.16 0 l0 2.06 l-6.12 0 l0 2.52 q0.62 -0.36 1.5 -0.5 q0.68 -0.1 1.74 -0.1 l1.52 0 l0 2.06 l-1.52 0 q-1.38 0 -2 0.12 q-0.54 0.1 -1.24 0.48 z M185.20000000000002 15.860000000000003 l0.64 1.08 q0.34 0.56 0.86 0.78 q0.36 0.14 0.88 0.14 l0.72 0 l0 2.22 l-0.9 0 q-0.66 0 -1.04 -0.08 q-0.56 -0.12 -1.02 -0.44 q-0.5 -0.38 -0.96 -1.12 l-1.6 -2.6 l-0.14 0 q-1.14 0 -1.74 0.14 q-0.48 0.1 -1.16 0.46 l0 3.64 l-2.1 0 l0 -10.36 l6.68 0 q0.94 0 1.68 0.4 t1.16 1.12 t0.42 1.6 q0 1.16 -0.61 1.91 t-1.77 1.11 z M182.64000000000001 13.780000000000001 l1.68 0 q0.5 0 0.83 -0.26 t0.33 -0.74 q0 -0.62 -0.48 -0.84 q-0.34 -0.16 -1.04 -0.16 l-4.22 0 l0 2.6 q1.1 -0.6 2.9 -0.6 z"></path></g>
			</g>
		</svg>
	